<?xml version="1.0" encoding="UTF-8" standalone="no"?>
<svg
   xmlns:dc="http://purl.org/dc/elements/1.1/"
   xmlns:cc="http://creativecommons.org/ns#"
   xmlns:rdf="http://www.w3.org/1999/02/22-rdf-syntax-ns#"
   xmlns:svg="http://www.w3.org/2000/svg"
   xmlns="http://www.w3.org/2000/svg"
   xmlns:sodipodi="http://sodipodi.sourceforge.net/DTD/sodipodi-0.dtd"
   xmlns:inkscape="http://www.inkscape.org/namespaces/inkscape"
   width="234"
   height="96"
   viewBox="0 0 234 96"
   fill="none"
   version="1.1"
   id="svg6"
   sodipodi:docname="getit.svg"
   inkscape:version="0.92.5 (2060ec1f9f, 2020-04-08)">
  <metadata
     id="metadata12">
    <rdf:RDF>
      <cc:Work
         rdf:about="">
        <dc:format>image/svg+xml</dc:format>
        <dc:type
           rdf:resource="http://purl.org/dc/dcmitype/StillImage" />
      </cc:Work>
    </rdf:RDF>
  </metadata>
  <defs
     id="defs10" />
  <sodipodi:namedview
     pagecolor="#ffffff"
     bordercolor="#666666"
     borderopacity="1"
     objecttolerance="10"
     gridtolerance="10"
     guidetolerance="10"
     inkscape:pageopacity="0"
     inkscape:pageshadow="2"
     inkscape:window-width="640"
     inkscape:window-height="480"
     id="namedview8"
     showgrid="false"
     inkscape:zoom="1.2948718"
     inkscape:cx="117"
     inkscape:cy="48"
     inkscape:window-x="0"
     inkscape:window-y="27"
     inkscape:window-maximized="0"
     inkscape:current-layer="svg6" />
  <path
     d="M15.7 49C15.7 57.3333 19.0667 61.5 25.8 61.5C27.3333 61.5 28.7667 61.3 30.1 60.9C31.4333 60.5 32.5667 60.0333 33.5 59.5V35.7C32.7667 35.5667 31.9 35.4667 30.9 35.4C29.9 35.2667 28.7333 35.2 27.4 35.2C23.4667 35.2 20.5333 36.5 18.6 39.1C16.6667 41.7 15.7 45 15.7 49ZM48.4 70.4C48.4 79 46.2 85.3667 41.8 89.5C37.4667 93.7 30.7333 95.8 21.6 95.8C18.4 95.8 15.2 95.5 12 94.9C8.8 94.3667 5.83333 93.6333 3.1 92.7L5.7 80.2C8.03333 81.1333 10.4667 81.8667 13 82.4C15.6 82.9333 18.5333 83.2 21.8 83.2C26.0667 83.2 29.0667 82.2667 30.8 80.4C32.6 78.5333 33.5 76.1333 33.5 73.2V71.3C31.9 72.0333 30.2333 72.6 28.5 73C26.8333 73.3333 25 73.5 23 73.5C15.7333 73.5 10.1667 71.3667 6.3 67.1C2.43333 62.7667 0.5 56.7333 0.5 49C0.5 45.1333 1.1 41.6333 2.3 38.5C3.5 35.3 5.23333 32.5667 7.5 30.3C9.83333 28.0333 12.6667 26.3 16 25.1C19.3333 23.8333 23.1 23.2 27.3 23.2C29.1 23.2 30.9333 23.3 32.8 23.5C34.7333 23.6333 36.6333 23.8333 38.5 24.1C40.3667 24.3667 42.1333 24.7 43.8 25.1C45.5333 25.4333 47.0667 25.8 48.4 26.2V70.4ZM55.875 51.1C55.875 46.4333 56.575 42.3667 57.975 38.9C59.4417 35.3667 61.3417 32.4333 63.675 30.1C66.0083 27.7667 68.675 26 71.675 24.8C74.7417 23.6 77.875 23 81.075 23C88.5417 23 94.4417 25.3 98.775 29.9C103.108 34.4333 105.275 41.1333 105.275 50C105.275 50.8667 105.242 51.8333 105.175 52.9C105.108 53.9 105.042 54.8 104.975 55.6H71.175C71.5083 58.6667 72.9417 61.1 75.475 62.9C78.0083 64.7 81.4083 65.6 85.675 65.6C88.4083 65.6 91.075 65.3667 93.675 64.9C96.3417 64.3667 98.5083 63.7333 100.175 63L102.175 75.1C101.375 75.5 100.308 75.9 98.975 76.3C97.6417 76.7 96.1417 77.0333 94.475 77.3C92.875 77.6333 91.1417 77.9 89.275 78.1C87.4083 78.3 85.5417 78.4 83.675 78.4C78.9417 78.4 74.8083 77.7 71.275 76.3C67.8083 74.9 64.9083 73 62.575 70.6C60.3083 68.1333 58.6083 65.2333 57.475 61.9C56.4083 58.5667 55.875 54.9667 55.875 51.1ZM90.875 45.4C90.8083 44.1333 90.575 42.9 90.175 41.7C89.8417 40.5 89.275 39.4333 88.475 38.5C87.7417 37.5667 86.775 36.8 85.575 36.2C84.4417 35.6 83.0083 35.3 81.275 35.3C79.6083 35.3 78.175 35.6 76.975 36.2C75.775 36.7333 74.775 37.4667 73.975 38.4C73.175 39.3333 72.5417 40.4333 72.075 41.7C71.675 42.9 71.375 44.1333 71.175 45.4H90.875ZM112.273 11.3L127.173 8.89999V24.4H145.073V36.8H127.173V55.3C127.173 58.4333 127.707 60.9333 128.773 62.8C129.907 64.6667 132.14 65.6 135.473 65.6C137.073 65.6 138.707 65.4667 140.373 65.2C142.107 64.8667 143.673 64.4333 145.073 63.9L147.173 75.5C145.373 76.2333 143.373 76.8667 141.173 77.4C138.973 77.9333 136.273 78.2 133.073 78.2C129.007 78.2 125.64 77.6667 122.973 76.6C120.307 75.4667 118.173 73.9333 116.573 72C114.973 70 113.84 67.6 113.173 64.8C112.573 62 112.273 58.9 112.273 55.5V11.3Z"
     fill="#FF6113"
     id="path2"
     style="fill:#000000" />
  <path
     d="M167.807 69.1C167.807 72.1 166.84 74.4 164.907 76C163.04 77.5333 160.907 78.3 158.507 78.3C156.107 78.3 153.94 77.5333 152.007 76C150.14 74.4 149.207 72.1 149.207 69.1C149.207 66.1 150.14 63.8333 152.007 62.3C153.94 60.7 156.107 59.9 158.507 59.9C160.907 59.9 163.04 60.7 164.907 62.3C166.84 63.8333 167.807 66.1 167.807 69.1ZM188.716 77H173.816V24.4H188.716V77ZM190.116 9.2C190.116 11.9333 189.216 14.1 187.416 15.7C185.683 17.2333 183.616 18 181.216 18C178.816 18 176.716 17.2333 174.916 15.7C173.183 14.1 172.316 11.9333 172.316 9.2C172.316 6.46666 173.183 4.33333 174.916 2.8C176.716 1.2 178.816 0.399997 181.216 0.399997C183.616 0.399997 185.683 1.2 187.416 2.8C189.216 4.33333 190.116 6.46666 190.116 9.2ZM198.223 11.3L213.123 8.89999V24.4H231.023V36.8H213.123V55.3C213.123 58.4333 213.656 60.9333 214.723 62.8C215.856 64.6667 218.089 65.6 221.423 65.6C223.023 65.6 224.656 65.4667 226.323 65.2C228.056 64.8667 229.623 64.4333 231.023 63.9L233.123 75.5C231.323 76.2333 229.323 76.8667 227.123 77.4C224.923 77.9333 222.223 78.2 219.023 78.2C214.956 78.2 211.589 77.6667 208.923 76.6C206.256 75.4667 204.123 73.9333 202.523 72C200.923 70 199.789 67.6 199.123 64.8C198.523 62 198.223 58.9 198.223 55.5V11.3Z"
     fill="#7F417F"
     id="path4"
     style="fill:#000000" />
</svg>
